<svg viewBox="0 0 100 100" xmlns="http://www.w3.org/2000/svg"><defs><clipPath id="cpP052"><rect x="3" y="3" width="94" height="94" rx="16"/></clipPath></defs><rect x="3" y="3" width="94" height="94" rx="16" fill="#0c1d31" stroke="#9fb0c4" stroke-width="1.6"/><g clip-path="url(#cpP052)"><g opacity="0.12"><rect x="20" y="0" width="20" height="20" fill="#9fb0c4"/><rect x="60" y="0" width="20" height="20" fill="#9fb0c4"/><rect x="40" y="0" width="20" height="20" fill="#9fb0c4"/><rect x="40" y="0" width="20" height="20" fill="#9fb0c4"/><rect x="40" y="20" width="20" height="20" fill="#9fb0c4"/><rect x="40" y="20" width="20" height="20" fill="#9fb0c4"/><rect x="40" y="40" width="20" height="20" fill="#9fb0c4"/><rect x="40" y="40" width="20" height="20" fill="#9fb0c4"/><rect x="0" y="60" width="20" height="20" fill="#9fb0c4"/><rect x="80" y="60" width="20" height="20" fill="#9fb0c4"/><rect x="20" y="60" width="20" height="20" fill="#9fb0c4"/><rect x="60" y="60" width="20" height="20" fill="#9fb0c4"/><rect x="40" y="60" width="20" height="20" fill="#9fb0c4"/><rect x="40" y="60" width="20" height="20" fill="#9fb0c4"/><rect x="0" y="80" width="20" height="20" fill="#9fb0c4"/><rect x="80" y="80" width="20" height="20" fill="#9fb0c4"/></g></g><rect x="36" y="36" width="28" height="28" rx="4" fill="none" stroke="#9fb0c4" stroke-width="3"/><circle cx="64" cy="90" r="1.8" fill="#9fb0c4" opacity=".9"/><circle cx="78" cy="42" r="1.8" fill="#9fb0c4" opacity=".9"/></svg>